<svg xmlns="http://www.w3.org/2000/svg" width="28" height="18" viewBox="0 0 28 18">
  <metadata><?xpacket begin="﻿" id="W5M0MpCehiHzreSzNTczkc9d"?>
<x:xmpmeta xmlns:x="adobe:ns:meta/" x:xmptk="Adobe XMP Core 5.6-c138 79.159824, 2016/09/14-01:09:01        ">
   <rdf:RDF xmlns:rdf="http://www.w3.org/1999/02/22-rdf-syntax-ns#">
      <rdf:Description rdf:about=""/>
   </rdf:RDF>
</x:xmpmeta>
                                                                                                    
                                                                                                    
                                                                                                    
                                                                                                    
                                                                                                    
                                                                                                    
                                                                                                    
                                                                                                    
                                                                                                    
                                                                                                    
                                                                                                    
                                                                                                    
                                                                                                    
                                                                                                    
                                                                                                    
                                                                                                    
                                                                                                    
                                                                                                    
                                                                                                    
                                                                                                    
                           
<?xpacket end="w"?></metadata>
<defs>
    <style>
      .cls-1 {
        fill-rule: evenodd;
        fill:#000000;
      }
    </style>
  </defs>
  <path id="Rounded_Rectangle_9_copy" data-name="Rounded Rectangle 9 copy" class="cls-1" d="M675.922,604.828a0.532,0.532,0,0,1-.763,0,0.557,0.557,0,0,1,0-.778l1.029-1.05h-8.236l-2.741,4.263-0.611-.9,2.42-3.764a0.444,0.444,0,0,1,.372-0.578l0.014-.022H676.2l-1.041-1.063a0.557,0.557,0,0,1,0-.778,0.534,0.534,0,0,1,.763,0l1.906,1.946a0.557,0.557,0,0,1,0,.778ZM659,602h0.594l0.014,0.022a0.444,0.444,0,0,1,.372.578l7.972,12.4H676.2l-1.042-1.063a0.557,0.557,0,0,1,0-.778,0.534,0.534,0,0,1,.763,0l1.906,1.945a0.557,0.557,0,0,1,0,.778l-1.906,1.945a0.532,0.532,0,0,1-.763,0,0.556,0.556,0,0,1,0-.777l1.029-1.05h-8.782l-0.014-.022a0.444,0.444,0,0,1-.372-0.578L659.048,603H650.5a0.5,0.5,0,0,1,0-1H659Zm-8.5,13h8.549l2.74-4.263,0.611,0.9-2.42,3.764a0.444,0.444,0,0,1-.372.578l-0.014.022H650.5A0.5,0.5,0,0,1,650.5,615Z" transform="translate(-650 -600)"/>
</svg>
