<svg id="Группа_2" data-name="Группа 2" xmlns="http://www.w3.org/2000/svg" width="24" height="24" viewBox="0 0 24 24">
  <metadata><?xpacket begin="﻿" id="W5M0MpCehiHzreSzNTczkc9d"?>
<x:xmpmeta xmlns:x="adobe:ns:meta/" x:xmptk="Adobe XMP Core 5.6-c138 79.159824, 2016/09/14-01:09:01        ">
   <rdf:RDF xmlns:rdf="http://www.w3.org/1999/02/22-rdf-syntax-ns#">
      <rdf:Description rdf:about=""/>
   </rdf:RDF>
</x:xmpmeta>
                                                                                                    
                                                                                                    
                                                                                                    
                                                                                                    
                                                                                                    
                                                                                                    
                                                                                                    
                                                                                                    
                                                                                                    
                                                                                                    
                                                                                                    
                                                                                                    
                                                                                                    
                                                                                                    
                                                                                                    
                                                                                                    
                                                                                                    
                                                                                                    
                                                                                                    
                                                                                                    
                           
<?xpacket end="w"?></metadata>
<defs>
    <style>
      .cls-1 {
        fill: #385543;
        stroke: #385543;
        stroke-linejoin: round;
        stroke-width: 2px;
      }

      .cls-2 {
        fill: #fff;
        fill-rule: evenodd;
      }
    </style>
  </defs>
  <circle class="cls-1" cx="12" cy="12" r="11"/>
  <path id="Rounded_Rectangle_11" data-name="Rounded Rectangle 11" class="cls-2" d="M593.3,1534H578.7a0.685,0.685,0,0,1-.7-0.68v-3.39h2.087v1.36a0.683,0.683,0,0,0,.7.67h10.434a0.683,0.683,0,0,0,.7-0.67v-1.36H594v3.39A0.685,0.685,0,0,1,593.3,1534Zm-1.155-10.28-5.165,5.04h0l-0.492.48h0l-0.246.24a0.359,0.359,0,0,1-.492,0l-0.71-.69-4.947-4.83a0.667,0.667,0,0,1,0-.96l0.492-.48a0.718,0.718,0,0,1,.984,0l3.384,3.3v-10.14a0.685,0.685,0,0,1,.7-0.68h0.7a0.685,0.685,0,0,1,.7.68v10.14l3.63-3.54a0.359,0.359,0,0,1,.492,0l0.984,0.96A0.333,0.333,0,0,1,592.149,1523.72Z" transform="translate(-574 -1514)"/>
</svg>
