<svg xmlns="http://www.w3.org/2000/svg" width="47" height="60" viewBox="0 0 47 60">
  <metadata><?xpacket begin="﻿" id="W5M0MpCehiHzreSzNTczkc9d"?>
<x:xmpmeta xmlns:x="adobe:ns:meta/" x:xmptk="Adobe XMP Core 5.6-c138 79.159824, 2016/09/14-01:09:01        ">
   <rdf:RDF xmlns:rdf="http://www.w3.org/1999/02/22-rdf-syntax-ns#">
      <rdf:Description rdf:about=""/>
   </rdf:RDF>
</x:xmpmeta>
                                                                                                    
                                                                                                    
                                                                                                    
                                                                                                    
                                                                                                    
                                                                                                    
                                                                                                    
                                                                                                    
                                                                                                    
                                                                                                    
                                                                                                    
                                                                                                    
                                                                                                    
                                                                                                    
                                                                                                    
                                                                                                    
                                                                                                    
                                                                                                    
                                                                                                    
                                                                                                    
                           
<?xpacket end="w"?></metadata>
<defs>
    <style>
      .cls-1 {
        fill: #385543;
        fill-rule: evenodd;
      }
    </style>
  </defs>
  <path id="Forma_1" data-name="Forma 1" class="cls-1" d="M557.414,1127H525v60h47v-45.41Zm0.586,3.41L568.586,1141H558v-10.59ZM527,1185v-56h29v14h14v42H527Zm34-37H545a1,1,0,0,0,0,2h16A1,1,0,0,0,561,1148Zm-19.625-2.78-4.3,3.44-1.367-1.37a1,1,0,0,0-1.414,1.42l2,2a1.012,1.012,0,0,0,.707.29,0.978,0.978,0,0,0,.624-0.22l5-4A1,1,0,1,0,541.375,1145.22ZM561,1159H545a1,1,0,0,0,0,2h16A1,1,0,0,0,561,1159Zm-19.625-2.78-4.3,3.44-1.367-1.37a1,1,0,0,0-1.414,1.42l2,2a1.012,1.012,0,0,0,.707.29,0.978,0.978,0,0,0,.624-0.22l5-4A1,1,0,1,0,541.375,1156.22ZM561,1170H545a1,1,0,0,0,0,2h16A1,1,0,0,0,561,1170Zm-19.625-2.78-4.3,3.44-1.367-1.37a1,1,0,0,0-1.414,1.42l2,2a1.012,1.012,0,0,0,.707.29,0.978,0.978,0,0,0,.624-0.22l5-4A1,1,0,0,0,541.375,1167.22Z" transform="translate(-525 -1127)"/>
</svg>
