<svg xmlns="http://www.w3.org/2000/svg" width="56" height="60" viewBox="0 0 56 60">
  <metadata><?xpacket begin="﻿" id="W5M0MpCehiHzreSzNTczkc9d"?>
<x:xmpmeta xmlns:x="adobe:ns:meta/" x:xmptk="Adobe XMP Core 5.6-c138 79.159824, 2016/09/14-01:09:01        ">
   <rdf:RDF xmlns:rdf="http://www.w3.org/1999/02/22-rdf-syntax-ns#">
      <rdf:Description rdf:about=""/>
   </rdf:RDF>
</x:xmpmeta>
                                                                                                    
                                                                                                    
                                                                                                    
                                                                                                    
                                                                                                    
                                                                                                    
                                                                                                    
                                                                                                    
                                                                                                    
                                                                                                    
                                                                                                    
                                                                                                    
                                                                                                    
                                                                                                    
                                                                                                    
                                                                                                    
                                                                                                    
                                                                                                    
                                                                                                    
                                                                                                    
                           
<?xpacket end="w"?></metadata>
<defs>
    <style>
      .cls-1 {
        fill: #385543;
        fill-rule: evenodd;
      }
    </style>
  </defs>
  <path id="Forma_1" data-name="Forma 1" class="cls-1" d="M813.62,1164.99a3.517,3.517,0,0,0,2.588-1.46l9.3-12.94a1.014,1.014,0,0,0-.1-1.3,0.993,0.993,0,0,0-1.284-.1l-12.854,9.37a3.548,3.548,0,0,0-1.445,2.6,3.586,3.586,0,0,0,1.025,2.8,3.522,3.522,0,0,0,2.5,1.04A2.574,2.574,0,0,0,813.62,1164.99Zm-1.822-3.67a1.576,1.576,0,0,1,.632-1.15l7.841-5.71-5.671,7.89A1.549,1.549,0,0,1,811.8,1161.32Zm24.063-14.76c-0.01-.02-0.01-0.04-0.02-0.06s-0.031-.03-0.044-0.05a27.233,27.233,0,0,0-3.54-4.81l2.133-2.15,1.4,1.42,4.212-4.25-4.212-4.24-4.213,4.24,1.4,1.42-2.133,2.15a26.818,26.818,0,0,0-4.775-3.57c-0.019-.01-0.029-0.03-0.049-0.04s-0.043-.01-0.064-0.03a26.6,26.6,0,0,0-10.2-3.4V1132h1.49a2.5,2.5,0,0,0,0-5h-8.936a2.5,2.5,0,0,0,0,5h1.49v1.16a26.872,26.872,0,0,0-3.2.53,1,1,0,0,0-.746,1.2,0.986,0.986,0,0,0,1.19.75,26.029,26.029,0,0,1,2.76-.48l1.065-.08c0.326-.03.626-0.04,0.918-0.06V1137a0.993,0.993,0,1,0,1.985,0v-1.97a24.341,24.341,0,0,1,10.382,2.85l-0.979,1.7a1.01,1.01,0,0,0,.363,1.37,1,1,0,0,0,1.357-.37l0.976-1.7a25.034,25.034,0,0,1,7.717,7.77l-1.691.98a1.009,1.009,0,0,0-.362,1.37,1,1,0,0,0,1.357.37l1.694-.99a24.983,24.983,0,0,1,2.829,10.62H835.46a1,1,0,0,0,0,2h1.961a24.983,24.983,0,0,1-2.829,10.62l-1.694-.99a1,1,0,0,0-.993,1.73l1.691,0.99a25.141,25.141,0,0,1-7.717,7.77l-0.976-1.7a0.987,0.987,0,0,0-1.357-.37,1.008,1.008,0,0,0-.363,1.37l0.979,1.7a24.629,24.629,0,0,1-10.382,2.85V1183a0.993,0.993,0,1,0-1.985,0v1.98a25.474,25.474,0,0,1-4.743-.62,0.985,0.985,0,0,0-1.189.75,1,1,0,0,0,.746,1.2,26.637,26.637,0,0,0,6.015.69h0.184a26.588,26.588,0,0,0,13.125-3.58,0.364,0.364,0,0,0,.094-0.04c0.02-.01.031-0.03,0.049-0.04a27.108,27.108,0,0,0,9.7-9.76c0.019-.03.043-0.05,0.06-0.08s0.01-.04.02-0.06A27.074,27.074,0,0,0,835.861,1146.56Zm-0.068-11.31,1.4,1.41-1.4,1.42-1.4-1.42Zm-24-2.23V1130h-3.476a0.5,0.5,0,0,1-.5-0.5,0.5,0.5,0,0,1,.5-0.5h8.936a0.5,0.5,0,0,1,.5.5,0.5,0.5,0,0,1-.5.5h-3.475v3.02c-0.345-.01-0.675-0.02-0.993-0.02h-0.161c-0.163,0-.326.01-0.489,0.01C812.02,1133.02,811.912,1133.02,811.793,1133.02Zm-7.944,7.98h-4.964a1,1,0,0,0,0,2h4.964A1,1,0,0,0,803.849,1141Zm0,7H793.92a1,1,0,0,0,0,2h9.929A1,1,0,0,0,803.849,1148Zm0,7H788.956a1,1,0,0,0,0,2h14.893A1,1,0,0,0,803.849,1155Zm0,7H784.984a1,1,0,0,0,0,2h18.865A1,1,0,0,0,803.849,1162Zm0,7H790.942a1,1,0,0,0,0,2h12.907A1,1,0,0,0,803.849,1169Zm0,7H796.9a1,1,0,0,0,0,2h6.95A1,1,0,0,0,803.849,1176Z" transform="translate(-784 -1127)"/>
</svg>
