<svg id="Группа_1" xmlns="http://www.w3.org/2000/svg" width="35" height="35" viewBox="0 0 35 35">
<defs>
    <style>
      .cls-1 {
        fill: #385543;
        fill-opacity: 0;
        stroke: #385543;
        stroke-linejoin: round;
        stroke-width: 2px;
      }

      .cls-2 {
        fill: #385543;
        fill-rule: evenodd;
      }
    </style>
  </defs>
  <circle class="cls-1" cx="17.5" cy="17.5" r="16.5"/>
  <path id="Forma_1" data-name="Forma 1" class="cls-2" d="M1184.09,65.227a17.273,17.273,0,0,1,6.78,3.53,12.478,12.478,0,0,1-18.9-.174,17.386,17.386,0,0,1,6.58-3.356c0.55-.088.57-1.606,0.57-1.606a7.686,7.686,0,0,1-1.98-3.766c-0.95,0-1.54-2.3-.59-3.1-0.04-.851-1.22-6.676,4.77-6.676s4.81,5.826,4.77,6.676c0.95,0.808.36,3.1-.59,3.1a7.686,7.686,0,0,1-1.98,3.766S1183.54,65.139,1184.09,65.227Z" transform="translate(-1164 -43)"/>
</svg>
