<svg xmlns="http://www.w3.org/2000/svg" width="17" height="22" viewBox="0 0 17 22">
  <metadata><?xpacket begin="﻿" id="W5M0MpCehiHzreSzNTczkc9d"?>
<x:xmpmeta xmlns:x="adobe:ns:meta/" x:xmptk="Adobe XMP Core 5.6-c138 79.159824, 2016/09/14-01:09:01        ">
   <rdf:RDF xmlns:rdf="http://www.w3.org/1999/02/22-rdf-syntax-ns#">
      <rdf:Description rdf:about=""/>
   </rdf:RDF>
</x:xmpmeta>
                                                                                                    
                                                                                                    
                                                                                                    
                                                                                                    
                                                                                                    
                                                                                                    
                                                                                                    
                                                                                                    
                                                                                                    
                                                                                                    
                                                                                                    
                                                                                                    
                                                                                                    
                                                                                                    
                                                                                                    
                                                                                                    
                                                                                                    
                                                                                                    
                                                                                                    
                                                                                                    
                           
<?xpacket end="w"?></metadata>
<defs>
    <style>
      .cls-1 {
        fill: #a6b8bf;
        fill-rule: evenodd;
      }
    </style>
  </defs>
  <path id="Rounded_Rectangle_3" data-name="Rounded Rectangle 3" class="cls-1" d="M131,2705H120a3,3,0,0,1-3-3v-16a3,3,0,0,1,3-3h11a3,3,0,0,1,3,3v16A3,3,0,0,1,131,2705Zm1-19.03a1,1,0,0,0-1-1H120a1,1,0,0,0-1,1v16a1,1,0,0,0,1,1h11a1,1,0,0,0,1-1v-16Zm-2,9.03h-9a1,1,0,0,1,0-2h9A1,1,0,0,1,130,2695Zm0-4h-9a1,1,0,0,1,0-2h9A1,1,0,0,1,130,2691Zm-9,6h5a1,1,0,0,1,0,2h-5A1,1,0,0,1,121,2697Z" transform="translate(-117 -2683)"/>
</svg>
