<svg xmlns="http://www.w3.org/2000/svg" width="10" height="16.969" viewBox="0 0 10 16.969">
  <path id="Rounded_Rectangle_6" data-name="Rounded Rectangle 6" class="cls-1" d="M1461,399.765a4.384,4.384,0,1,0-4.47-4.383A4.434,4.434,0,0,0,1461,399.765Zm0-6.2a1.814,1.814,0,1,1-1.85,1.814A1.835,1.835,0,0,1,1461,393.568Zm1.81,9.772a8.547,8.547,0,0,0,2.59-1.056,1.265,1.265,0,0,0,.41-1.769,1.317,1.317,0,0,0-1.8-.4,5.771,5.771,0,0,1-6.02,0,1.317,1.317,0,0,0-1.8.4,1.265,1.265,0,0,0,.41,1.769,8.47,8.47,0,0,0,2.59,1.056l-2.49,2.449a1.267,1.267,0,0,0,0,1.814,1.3,1.3,0,0,0,.92.377,1.327,1.327,0,0,0,.93-0.377L1461,405.2l2.45,2.405a1.325,1.325,0,0,0,1.85,0,1.267,1.267,0,0,0,0-1.814Z" transform="translate(-1456 -391)"/>
</svg>
