<svg xmlns="http://www.w3.org/2000/svg" width="13" height="14" viewBox="0 0 13 14">
  <path id="Rounded_Rectangle_6" data-name="Rounded Rectangle 6" class="cls-1" d="M1467.1,254.443a4.711,4.711,0,0,0-2.41-1.115v-0.074a3.5,3.5,0,0,0,1.64-1.179,3.02,3.02,0,0,0,.59-1.826,2.838,2.838,0,0,0-.43-1.566,2.974,2.974,0,0,0-1.31-1.083,5.678,5.678,0,0,0-1.73-.491,22.5,22.5,0,0,0-2.71-.119H1455v14.021h6.51a12.175,12.175,0,0,0,2.78-.264,6.069,6.069,0,0,0,2.02-.884,3.845,3.845,0,0,0,1.23-1.309,3.556,3.556,0,0,0,.46-1.838A2.968,2.968,0,0,0,1467.1,254.443Zm-8.04-4.882h0.28c0.73,0,1.28,0,1.65.013a2.857,2.857,0,0,1,.95.167,1.126,1.126,0,0,1,.63.518,1.349,1.349,0,0,1,.2.7,1.754,1.754,0,0,1-.18.81,1.278,1.278,0,0,1-.68.546,2.7,2.7,0,0,1-.87.2c-0.28.012-.77,0.019-1.46,0.019h-0.52v-2.967Zm4.48,8a1.564,1.564,0,0,1-.81.609,3.893,3.893,0,0,1-1.25.253c-0.4.013-1.14,0.02-2.2,0.02h-0.22v-3.511h0.75q1.1,0,1.74.013a3.605,3.605,0,0,1,1.03.139,1.841,1.841,0,0,1,.91.556,1.5,1.5,0,0,1,.31,1.015A1.647,1.647,0,0,1,1463.54,257.557Z" transform="translate(-1455 -247)"/>
</svg>
