<svg id="Группа_1" data-name="Группа 1" xmlns="http://www.w3.org/2000/svg" width="20" height="14" viewBox="0 0 20 14">
  <metadata><?xpacket begin="﻿" id="W5M0MpCehiHzreSzNTczkc9d"?>
<x:xmpmeta xmlns:x="adobe:ns:meta/" x:xmptk="Adobe XMP Core 5.6-c138 79.159824, 2016/09/14-01:09:01        ">
   <rdf:RDF xmlns:rdf="http://www.w3.org/1999/02/22-rdf-syntax-ns#">
      <rdf:Description rdf:about=""/>
   </rdf:RDF>
</x:xmpmeta>
                                                                                                    
                                                                                                    
                                                                                                    
                                                                                                    
                                                                                                    
                                                                                                    
                                                                                                    
                                                                                                    
                                                                                                    
                                                                                                    
                                                                                                    
                                                                                                    
                                                                                                    
                                                                                                    
                                                                                                    
                                                                                                    
                                                                                                    
                                                                                                    
                                                                                                    
                                                                                                    
                           
<?xpacket end="w"?></metadata>
<defs>
    <style>
      .cls-1 {
        fill: #fff;
        stroke: #385543;
        stroke-linejoin: round;
        stroke-width: 2px;
      }

      .cls-1, .cls-2 {
        fill-rule: evenodd;
      }

      .cls-2 {
        fill: #385543;
      }
    </style>
  </defs>
  <path class="cls-1" d="M431.011,1363a21.563,21.563,0,0,1-4.3,4.29,9.433,9.433,0,0,1-1.115.63,6.455,6.455,0,0,1-3.321,1.05c-0.164.03-.278,0.04-0.278,0.04s-0.074-.01-0.179-0.03a6.392,6.392,0,0,1-3.929-1.46c-0.131-.08-0.26-0.15-0.392-0.23a25.294,25.294,0,0,1-4.511-4.29,25.4,25.4,0,0,1,4.511-4.29c0.131-.08.26-0.15,0.391-0.23a6.419,6.419,0,0,1,3.939-1.46c0.1-.02.17-0.03,0.17-0.03s0.121,0.01.3,0.04a6.368,6.368,0,0,1,3.293,1.05,9.636,9.636,0,0,1,1.119.63A22.121,22.121,0,0,1,431.011,1363Z" transform="translate(-412 -1356)"/>
  <path class="cls-2" d="M422,1366a3,3,0,0,1-3-3,2.927,2.927,0,0,1,.166-0.94L422,1363l-0.944-2.83A2.955,2.955,0,0,1,422,1360,3,3,0,0,1,422,1366Z" transform="translate(-412 -1356)"/>
</svg>
