<svg xmlns="http://www.w3.org/2000/svg" width="47" height="47.22" viewBox="0 0 47 47.22"><defs><style>.cls-1{fill:#385543;fill-rule:evenodd}</style></defs><path id="Rounded_Rectangle_7" data-name="Rounded Rectangle 7" class="cls-1" d="M161 1106h-6v-2h6a1 1 0 0 0 1-1v-38a1 1 0 0 0-1-1h-41a1 1 0 0 0-1 1v38a1 1 0 0 0 1 1h20v2h-20a3 3 0 0 1-3-3v-38a3 3 0 0 1 3-3h41a3 3 0 0 1 3 3v38a3 3 0 0 1-3 3zm-39-37a2 2 0 1 1 2 2 2 2 0 0 1-2-2zm6 0a2 2 0 1 1 2 2 2 2 0 0 1-2-2zm6 0a2 2 0 1 1 2 2 2 2 0 0 1-2-2zm26 5h-39v-1h39v1zm-21 28l.029-24L156 1094.97l-7.071 2.92 4.065 10.11-2.742 1.22-4.093-10.18z" transform="translate(-117 -1062)"/></svg>