<svg xmlns="http://www.w3.org/2000/svg" width="60" height="60" viewBox="0 0 60 60"><defs><style>.cls-1{fill:#385543;fill-rule:evenodd}</style></defs><path id="Forma_1" data-name="Forma 1" class="cls-1" d="M1153.41 1102l12.3 12.29a1.008 1.008 0 0 1 0 1.42 1.014 1.014 0 0 1-1.42 0l-12.29-12.3v9.59a1 1 0 0 1-2 0v-9.59l-12.29 12.3a1.014 1.014 0 0 1-1.42 0 1.008 1.008 0 0 1 0-1.42l12.3-12.29H1121v-42h29v-3a1 1 0 0 1 2 0v3h29v42h-27.59zm25.59-40h-56v38h56v-38zm-28 3a16 16 0 1 1-16 16 16.021 16.021 0 0 1 16-16zm0 30a14 14 0 1 0-14-14 14.015 14.015 0 0 0 14 14zm-4.48-21.88a1.008 1.008 0 0 1 1.02.04l11 7a1 1 0 0 1 0 1.68l-11 7a.972.972 0 0 1-.54.16 1.034 1.034 0 0 1-.48-.12 1.006 1.006 0 0 1-.52-.88v-14a1.006 1.006 0 0 1 .52-.88zm1.48 13.06l8.14-5.18-8.14-5.18v10.36z" transform="translate(-1121 -1056)"/></svg>