<svg xmlns="http://www.w3.org/2000/svg" width="28" height="18" viewBox="0 0 28 18"><defs><style>.cls-1{fill-rule:evenodd;fill:#000}</style></defs><path id="Rounded_Rectangle_9_copy" data-name="Rounded Rectangle 9 copy" class="cls-1" d="M675.922 604.828a.532.532 0 0 1-.763 0 .557.557 0 0 1 0-.778l1.029-1.05h-8.236l-2.741 4.263-.611-.9 2.42-3.764a.444.444 0 0 1 .372-.578l.014-.022h8.794l-1.041-1.063a.557.557 0 0 1 0-.778.534.534 0 0 1 .763 0l1.906 1.946a.557.557 0 0 1 0 .778zM659 602h.594l.014.022a.444.444 0 0 1 .372.578l7.972 12.4h8.248l-1.042-1.063a.557.557 0 0 1 0-.778.534.534 0 0 1 .763 0l1.906 1.945a.557.557 0 0 1 0 .778l-1.906 1.945a.532.532 0 0 1-.763 0 .556.556 0 0 1 0-.777l1.029-1.05h-8.782l-.014-.022a.444.444 0 0 1-.372-.578l-7.971-12.4H650.5a.5.5 0 0 1 0-1h8.5zm-8.5 13h8.549l2.74-4.263.611.9-2.42 3.764a.444.444 0 0 1-.372.578l-.014.022H650.5a.5.5 0 0 1 0-1.001z" transform="translate(-650 -600)"/></svg>