<svg id="Группа_2" data-name="Группа 2" xmlns="http://www.w3.org/2000/svg" width="24" height="24" viewBox="0 0 24 24"><defs><style>.cls-1{fill:#fff;stroke:#fff;stroke-linejoin:round;stroke-width:2px}.cls-2{fill:#385543;fill-rule:evenodd}</style></defs><circle class="cls-1" cx="12" cy="12" r="11"/><path id="Rounded_Rectangle_11" data-name="Rounded Rectangle 11" class="cls-2" d="M593.3 1534h-14.6a.685.685 0 0 1-.7-.68v-3.39h2.087v1.36a.683.683 0 0 0 .7.67h10.434a.683.683 0 0 0 .7-.67v-1.36H594v3.39a.685.685 0 0 1-.7.68zm-1.155-10.28l-5.165 5.04-.492.48-.246.24a.359.359 0 0 1-.492 0l-.71-.69-4.947-4.83a.667.667 0 0 1 0-.96l.492-.48a.718.718 0 0 1 .984 0l3.384 3.3v-10.14a.685.685 0 0 1 .7-.68h.7a.685.685 0 0 1 .7.68v10.14l3.63-3.54a.359.359 0 0 1 .492 0l.984.96a.333.333 0 0 1-.01.48z" transform="translate(-574 -1514)"/></svg>