<svg id="Группа_1" data-name="Группа 1" xmlns="http://www.w3.org/2000/svg" width="35" height="35" viewBox="0 0 35 35"><defs><style>.cls-1{fill:#385543;fill-opacity:0;stroke:#385543;stroke-linejoin:round;stroke-width:2px}.cls-2{fill:#385543;fill-rule:evenodd}</style></defs><circle class="cls-1" cx="17.5" cy="17.5" r="16.5"/><path id="Forma_1" data-name="Forma 1" class="cls-2" d="M1364.09 55.227a17.27 17.27 0 0 1 6.78 3.53 12.478 12.478 0 0 1-18.9-.174 17.383 17.383 0 0 1 6.58-3.356c.55-.088.57-1.607.57-1.607a7.686 7.686 0 0 1-1.98-3.766c-.95 0-1.54-2.3-.59-3.1-.04-.85-1.22-6.676 4.77-6.676s4.81 5.826 4.77 6.676c.95.808.36 3.1-.59 3.1a7.686 7.686 0 0 1-1.98 3.766s.02 1.519.57 1.607z" transform="translate(-1344 -32)"/></svg>