<svg id="Группа_1" data-name="Группа 1" xmlns="http://www.w3.org/2000/svg" width="39" height="39" viewBox="0 0 39 39"><defs><style>.cls-1{fill:none;stroke:#ed1c24;stroke-width:1px}.cls-2{fill:#ed1c24;fill-rule:evenodd}</style></defs><circle class="cls-1" cx="19.5" cy="19.5" r="19"/><path id="Forma_1" data-name="Forma 1" class="cls-2" d="M581.068 267.759a.724.724 0 0 0-.716-.549 2.46 2.46 0 0 1-1.683-4.281.619.619 0 0 0 .067-.84 11.057 11.057 0 0 0-1.764-1.782.621.621 0 0 0-.847.068 2.567 2.567 0 0 1-2.778.625 2.476 2.476 0 0 1-1.5-2.419.617.617 0 0 0-.546-.65 11.053 11.053 0 0 0-2.506-.007.62.62 0 0 0-.552.637 2.477 2.477 0 0 1-1.525 2.377 2.573 2.573 0 0 1-2.757-.628.622.622 0 0 0-.841-.071 11.088 11.088 0 0 0-1.8 1.782.62.62 0 0 0 .067.847 2.468 2.468 0 0 1 .622 2.779 2.574 2.574 0 0 1-2.423 1.506.605.605 0 0 0-.644.547 11.117 11.117 0 0 0 0 2.533.736.736 0 0 0 .73.547 2.445 2.445 0 0 1 2.292 1.527 2.479 2.479 0 0 1-.623 2.755.619.619 0 0 0-.068.839 11.131 11.131 0 0 0 1.762 1.783.621.621 0 0 0 .848-.067 2.563 2.563 0 0 1 2.777-.625 2.47 2.47 0 0 1 1.507 2.418.618.618 0 0 0 .547.65 10.988 10.988 0 0 0 1.283.075 11.139 11.139 0 0 0 1.223-.068.62.62 0 0 0 .551-.638 2.476 2.476 0 0 1 1.524-2.375 2.57 2.57 0 0 1 2.759.627.621.621 0 0 0 .84.071 11.093 11.093 0 0 0 1.8-1.782.62.62 0 0 0-.067-.847 2.467 2.467 0 0 1-.624-2.778 2.493 2.493 0 0 1 2.279-1.511h.137a.62.62 0 0 0 .652-.546 11.117 11.117 0 0 0-.003-2.529zm-11.051 4.976a3.716 3.716 0 1 1 3.715-3.716 3.719 3.719 0 0 1-3.715 3.716z" transform="translate(-550.5 -249.5)"/></svg>