<svg xmlns="http://www.w3.org/2000/svg" width="47" height="60" viewBox="0 0 47 60"><defs><style>.cls-1{fill:#385543;fill-rule:evenodd}</style></defs><path id="Forma_1" data-name="Forma 1" class="cls-1" d="M557.414 1127H525v60h47v-45.41zm.586 3.41l10.586 10.59H558v-10.59zM527 1185v-56h29v14h14v42h-43zm34-37h-16a1 1 0 0 0 0 2h16a1 1 0 0 0 0-2zm-19.625-2.78l-4.3 3.44-1.367-1.37a1 1 0 0 0-1.414 1.42l2 2a1.012 1.012 0 0 0 .707.29.978.978 0 0 0 .624-.22l5-4a1 1 0 1 0-1.25-1.56zM561 1159h-16a1 1 0 0 0 0 2h16a1 1 0 0 0 0-2zm-19.625-2.78l-4.3 3.44-1.367-1.37a1 1 0 0 0-1.414 1.42l2 2a1.012 1.012 0 0 0 .707.29.978.978 0 0 0 .624-.22l5-4a1 1 0 1 0-1.25-1.56zM561 1170h-16a1 1 0 0 0 0 2h16a1 1 0 0 0 0-2zm-19.625-2.78l-4.3 3.44-1.367-1.37a1 1 0 0 0-1.414 1.42l2 2a1.012 1.012 0 0 0 .707.29.978.978 0 0 0 .624-.22l5-4a1 1 0 0 0-1.25-1.56z" transform="translate(-525 -1127)"/></svg>