<svg xmlns="http://www.w3.org/2000/svg" width="56" height="60" viewBox="0 0 56 60"><defs><style>.cls-1{fill:#385543;fill-rule:evenodd}</style></defs><path id="Forma_1" data-name="Forma 1" class="cls-1" d="M813.62 1164.99a3.517 3.517 0 0 0 2.588-1.46l9.3-12.94a1.014 1.014 0 0 0-.1-1.3.993.993 0 0 0-1.284-.1l-12.854 9.37a3.548 3.548 0 0 0-1.445 2.6 3.586 3.586 0 0 0 1.025 2.8 3.522 3.522 0 0 0 2.5 1.04 2.574 2.574 0 0 0 .27-.01zm-1.822-3.67a1.576 1.576 0 0 1 .632-1.15l7.841-5.71-5.671 7.89a1.549 1.549 0 0 1-2.8-1.03zm24.063-14.76c-.01-.02-.01-.04-.02-.06s-.031-.03-.044-.05a27.233 27.233 0 0 0-3.54-4.81l2.133-2.15 1.4 1.42 4.212-4.25-4.212-4.24-4.213 4.24 1.4 1.42-2.133 2.15a26.818 26.818 0 0 0-4.775-3.57c-.019-.01-.029-.03-.049-.04s-.043-.01-.064-.03a26.6 26.6 0 0 0-10.2-3.4V1132h1.49a2.5 2.5 0 0 0 0-5h-8.936a2.5 2.5 0 0 0 0 5h1.49v1.16a26.872 26.872 0 0 0-3.2.53 1 1 0 0 0-.746 1.2.986.986 0 0 0 1.19.75 26.029 26.029 0 0 1 2.76-.48l1.065-.08c.326-.03.626-.04.918-.06v1.98a.993.993 0 1 0 1.985 0v-1.97a24.341 24.341 0 0 1 10.382 2.85l-.979 1.7a1.01 1.01 0 0 0 .363 1.37 1 1 0 0 0 1.357-.37l.976-1.7a25.034 25.034 0 0 1 7.717 7.77l-1.691.98a1.009 1.009 0 0 0-.362 1.37 1 1 0 0 0 1.357.37l1.694-.99a24.983 24.983 0 0 1 2.829 10.62h-1.955a1 1 0 0 0 0 2h1.961a24.983 24.983 0 0 1-2.829 10.62l-1.694-.99a1 1 0 0 0-.993 1.73l1.691.99a25.141 25.141 0 0 1-7.717 7.77l-.976-1.7a.987.987 0 0 0-1.357-.37 1.008 1.008 0 0 0-.363 1.37l.979 1.7a24.629 24.629 0 0 1-10.382 2.85V1183a.993.993 0 1 0-1.985 0v1.98a25.474 25.474 0 0 1-4.743-.62.985.985 0 0 0-1.189.75 1 1 0 0 0 .746 1.2 26.637 26.637 0 0 0 6.015.69h.184a26.588 26.588 0 0 0 13.125-3.58.364.364 0 0 0 .094-.04c.02-.01.031-.03.049-.04a27.108 27.108 0 0 0 9.7-9.76c.019-.03.043-.05.06-.08s.01-.04.02-.06a27.074 27.074 0 0 0 .005-26.88zm-.068-11.31l1.4 1.41-1.4 1.42-1.4-1.42zm-24-2.23V1130h-3.476a.5.5 0 0 1-.5-.5.5.5 0 0 1 .5-.5h8.936a.5.5 0 0 1 .5.5.5.5 0 0 1-.5.5h-3.475v3.02c-.345-.01-.675-.02-.993-.02h-.161c-.163 0-.326.01-.489.01-.115.01-.223.01-.342.01zm-7.944 7.98h-4.964a1 1 0 0 0 0 2h4.964a1 1 0 0 0 0-2zm0 7h-9.929a1 1 0 0 0 0 2h9.929a1 1 0 0 0 0-2zm0 7h-14.893a1 1 0 0 0 0 2h14.893a1 1 0 0 0 0-2zm0 7h-18.865a1 1 0 0 0 0 2h18.865a1 1 0 0 0 0-2zm0 7h-12.907a1 1 0 0 0 0 2h12.907a1 1 0 0 0 0-2zm0 7H796.9a1 1 0 0 0 0 2h6.95a1 1 0 0 0-.001-2z" transform="translate(-784 -1127)"/></svg>