<svg xmlns="http://www.w3.org/2000/svg" width="17" height="22" viewBox="0 0 17 22"><defs><style>.cls-1{fill:#a6b8bf;fill-rule:evenodd}</style></defs><path id="Rounded_Rectangle_3" data-name="Rounded Rectangle 3" class="cls-1" d="M131 2705h-11a3 3 0 0 1-3-3v-16a3 3 0 0 1 3-3h11a3 3 0 0 1 3 3v16a3 3 0 0 1-3 3zm1-19.03a1 1 0 0 0-1-1h-11a1 1 0 0 0-1 1v16a1 1 0 0 0 1 1h11a1 1 0 0 0 1-1v-16zm-2 9.03h-9a1 1 0 0 1 0-2h9a1 1 0 0 1 0 2zm0-4h-9a1 1 0 0 1 0-2h9a1 1 0 0 1 0 2zm-9 6h5a1 1 0 0 1 0 2h-5a1 1 0 0 1 0-2z" transform="translate(-117 -2683)"/></svg>