<svg xmlns="http://www.w3.org/2000/svg" width="17" height="14" viewBox="0 0 17 14"><path data-name="Rounded Rectangle 6" class="cls-1" d="M17.01 1.65a6.9 6.9 0 0 1-2 .556 3.536 3.536 0 0 0 1.53-1.96 6.842 6.842 0 0 1-2.22.86 3.451 3.451 0 0 0-2.55-1.118 3.554 3.554 0 0 0-3.4 4.348 9.871 9.871 0 0 1-7.2-3.7 3.585 3.585 0 0 0 1.08 4.726 3.438 3.438 0 0 1-1.58-.443v.043a3.536 3.536 0 0 0 2.8 3.472 3.464 3.464 0 0 1-.92.124 3.411 3.411 0 0 1-.65-.064 3.493 3.493 0 0 0 3.26 2.459A6.949 6.949 0 0 1 .82 12.47a7.313 7.313 0 0 1-.83-.049 9.765 9.765 0 0 0 5.35 1.592 9.942 9.942 0 0 0 9.94-10.075c0-.155 0-.307-.01-.459a7.227 7.227 0 0 0 1.74-1.833z"/></svg>