<svg xmlns="http://www.w3.org/2000/svg" width="13" height="14" viewBox="0 0 13 14"><path data-name="Rounded Rectangle 6" class="cls-1" d="M12.1 7.443a4.711 4.711 0 0 0-2.41-1.115v-.074a3.5 3.5 0 0 0 1.64-1.179 3.02 3.02 0 0 0 .59-1.826 2.838 2.838 0 0 0-.43-1.566A2.974 2.974 0 0 0 10.18.6 5.678 5.678 0 0 0 8.45.109 22.5 22.5 0 0 0 5.74-.01H0v14.021h6.51a12.175 12.175 0 0 0 2.78-.264 6.069 6.069 0 0 0 2.02-.884 3.845 3.845 0 0 0 1.23-1.309A3.556 3.556 0 0 0 13 9.716a2.968 2.968 0 0 0-.9-2.273zM4.06 2.561h.28c.73 0 1.28 0 1.65.013a2.857 2.857 0 0 1 .95.167 1.126 1.126 0 0 1 .63.518 1.349 1.349 0 0 1 .2.7 1.754 1.754 0 0 1-.18.81 1.278 1.278 0 0 1-.68.546 2.7 2.7 0 0 1-.87.2c-.28.012-.77.019-1.46.019h-.52V2.567zm4.48 8a1.564 1.564 0 0 1-.81.609 3.893 3.893 0 0 1-1.25.253c-.4.013-1.14.02-2.2.02h-.22V7.932h.75q1.1 0 1.74.013a3.605 3.605 0 0 1 1.03.139 1.841 1.841 0 0 1 .91.556 1.5 1.5 0 0 1 .31 1.015 1.647 1.647 0 0 1-.26.902z"/></svg>