<svg xmlns="http://www.w3.org/2000/svg" width="12" height="14" viewBox="0 0 12 14"><defs><style>.cls-1{fill:#385543;fill-rule:evenodd}</style></defs><path id="Forma_1" data-name="Forma 1" class="cls-1" d="M345.163 1365.88a2.448 2.448 0 0 1 .6 1.45.942.942 0 0 1 .234.61v.12a.937.937 0 0 1-.935.94h-10.13a.937.937 0 0 1-.935-.94v-.12a.942.942 0 0 1 .234-.61 2.448 2.448 0 0 1 .6-1.45l2.723-3.06a1.24 1.24 0 0 0 0-1.64l-2.723-3.06a2.441 2.441 0 0 1-.6-1.45.942.942 0 0 1-.234-.61v-.12a.937.937 0 0 1 .935-.94h10.13a.937.937 0 0 1 .935.94v.12a.942.942 0 0 1-.234.61 2.447 2.447 0 0 1-.6 1.45l-2.724 3.06a1.24 1.24 0 0 0 0 1.64zm-4.084-5.92l2.632-2.96h-7.422l2.632 2.96a3.074 3.074 0 0 1 0 4.08l-2.631 2.96h1.714a1.313 1.313 0 0 1 .249-.38l.876-.87a1.227 1.227 0 0 1 1.751 0l.876.87a1.3 1.3 0 0 1 .25.38h1.7l-2.63-2.96a3.072 3.072 0 0 1 .003-4.08z" transform="translate(-334 -1355)"/></svg>