<svg id="Группа_1" data-name="Группа 1" xmlns="http://www.w3.org/2000/svg" width="20" height="14" viewBox="0 0 20 14"><defs><style>.cls-1,.cls-2{fill-rule:evenodd}.cls-1{stroke:#385543;stroke-linejoin:round;stroke-width:2px;fill:#fff}.cls-2{fill:#385543}</style></defs><path class="cls-1" d="M431.011 1363a21.563 21.563 0 0 1-4.3 4.29 9.433 9.433 0 0 1-1.115.63 6.455 6.455 0 0 1-3.321 1.05c-.164.03-.278.04-.278.04s-.074-.01-.179-.03a6.392 6.392 0 0 1-3.929-1.46c-.131-.08-.26-.15-.392-.23a25.294 25.294 0 0 1-4.511-4.29 25.4 25.4 0 0 1 4.511-4.29c.131-.08.26-.15.391-.23a6.419 6.419 0 0 1 3.939-1.46c.1-.02.17-.03.17-.03s.121.01.3.04a6.368 6.368 0 0 1 3.293 1.05 9.636 9.636 0 0 1 1.119.63 22.121 22.121 0 0 1 4.302 4.29z" transform="translate(-412 -1356)"/><path class="cls-2" d="M422 1366a3 3 0 0 1-3-3 2.927 2.927 0 0 1 .166-.94l2.834.94-.944-2.83a2.955 2.955 0 0 1 .944-.17 3 3 0 0 1 0 6z" transform="translate(-412 -1356)"/></svg>