<svg xmlns="http://www.w3.org/2000/svg" width="14" height="25" viewBox="0 0 14 25"><defs><style>.cls-1{fill:#a6b8bf;fill-rule:evenodd}</style></defs><path id="Rounded_Rectangle_3" data-name="Rounded Rectangle 3" class="cls-1" d="M1160 2727h-1v3h3a1 1 0 0 1 0 2h-8a1 1 0 0 1 0-2h3v-3h-1a5 5 0 0 1-5-5v-10a5 5 0 0 1 5-5h4a5 5 0 0 1 5 5v10a5 5 0 0 1-5 5zm3-9h-3a1 1 0 0 1 0-2h3v-2h-3a1 1 0 0 1 0-2h3a3 3 0 0 0-3-3h-4a3 3 0 0 0-3 3v10a3 3 0 0 0 3 3h4a3 3 0 0 0 3-3h-3a1 1 0 0 1 0-2h3v-2z" transform="translate(-1151 -2707)"/></svg>